HIERARCHY
ROOT Hips
{
  OFFSET 0.0000 94.0000 0.0000
  CHANNELS 6 Xposition Yposition Zposition Yrotation Xrotation Zrotation
  JOINT Spine
  {
    OFFSET 0.0000 12.9947 0.0000
    CHANNELS 3 Yrotation Xrotation Zrotation
    JOINT Spine1
    {
      OFFSET 12.7099 0.0000 0.0000
      CHANNELS 3 Yrotation Xrotation Zrotation
      JOINT Spine2
      {
        OFFSET 12.7829 0.0000 0.0000
        CHANNELS 3 Yrotation Xrotation Zrotation
        JOINT LeftShoulder
        {
          OFFSET 10.4351 -7.0401 1.9147
          CHANNELS 3 Yrotation Xrotation Zrotation
          JOINT LeftArm
          {
            OFFSET 13.4599 0.0000 0.0000
            CHANNELS 3 Yrotation Xrotation Zrotation
            JOINT LeftForeArm
            {
              OFFSET 26.1001 0.0000 0.0001
              CHANNELS 3 Yrotation Xrotation Zrotation
              JOINT LeftHand
              {
                OFFSET 28.9001 0.0000 0.0000
                CHANNELS 3 Yrotation Xrotation Zrotation
                JOINT LeftInHandIndex
                {
                  OFFSET 2.6469 -0.1030 1.6042
                  CHANNELS 3 Yrotation Xrotation Zrotation
                  JOINT LeftHandIndex1
                  {
                    OFFSET 5.4270 0.0000 0.9569
                    CHANNELS 3 Yrotation Xrotation Zrotation
                    JOINT LeftHandIndex2
                    {
                      OFFSET 4.5806 0.0000 0.0000
                      CHANNELS 3 Yrotation Xrotation Zrotation
                      JOINT LeftHandIndex3
                      {
                        OFFSET 2.8181 -0.0001 0.0000
                        CHANNELS 3 Yrotation Xrotation Zrotation
                        End Site
                        {
                          OFFSET 1.4090 0.0000 0.0000
                        }
                      }
                    }
                  }
                }
                JOINT LeftInHandMiddle
                {
                  OFFSET 2.7689 -0.1030 0.5450
                  CHANNELS 3 Yrotation Xrotation Zrotation
                  JOINT LeftHandMiddle1
                  {
                    OFFSET 5.3677 0.0000 0.0000
                    CHANNELS 3 Yrotation Xrotation Zrotation
                    JOINT LeftHandMiddle2
                    {
                      OFFSET 4.7024 0.0000 0.0000
                      CHANNELS 3 Yrotation Xrotation Zrotation
                      JOINT LeftHandMiddle3
                      {
                        OFFSET 3.1016 0.0000 0.0000
                        CHANNELS 3 Yrotation Xrotation Zrotation
                        End Site
                        {
                          OFFSET 1.5508 0.0000 0.0000
                        }
                      }
                    }
                  }
                }
                JOINT LeftInHandPinky
                {
                  OFFSET 2.4891 -0.1030 -1.4884
                  CHANNELS 3 Yrotation Xrotation Zrotation
                  JOINT LeftHandPinky1
                  {
                    OFFSET 4.5290 0.0000 -1.6484
                    CHANNELS 3 Yrotation Xrotation Zrotation
                    JOINT LeftHandPinky2
                    {
                      OFFSET 3.5541 0.0000 0.0000
                      CHANNELS 3 Yrotation Xrotation Zrotation
                      JOINT LeftHandPinky3
                      {
                        OFFSET 2.2340 0.0000 0.0000
                        CHANNELS 3 Yrotation Xrotation Zrotation
                        End Site
                        {
                          OFFSET 1.1170 0.0000 0.0000
                        }
                      }
                    }
                  }
                }
                JOINT LeftInHandRing
                {
                  OFFSET 2.7444 -0.1030 -0.5478
                  CHANNELS 3 Yrotation Xrotation Zrotation
                  JOINT LeftHandRing1
                  {
                    OFFSET 5.0624 0.0000 -0.8927
                    CHANNELS 3 Yrotation Xrotation Zrotation
                    JOINT LeftHandRing2
                    {
                      OFFSET 4.3923 0.0000 0.0000
                      CHANNELS 3 Yrotation Xrotation Zrotation
                      JOINT LeftHandRing3
                      {
                        OFFSET 2.8327 -0.0001 0.0000
                        CHANNELS 3 Yrotation Xrotation Zrotation
                        End Site
                        {
                          OFFSET 1.4163 0.0000 0.0000
                        }
                      }
                    }
                  }
                }
                JOINT LeftHandThumb1
                {
                  OFFSET 2.0791 -0.0946 2.7863
                  CHANNELS 3 Yrotation Xrotation Zrotation
                  JOINT LeftHandThumb2
                  {
                    OFFSET 3.9619 0.0000 0.0000
                    CHANNELS 3 Yrotation Xrotation Zrotation
                    JOINT LeftHandThumb3
                    {
                      OFFSET 3.0072 0.0000 0.0000
                      CHANNELS 3 Yrotation Xrotation Zrotation
                      End Site
                      {
                        OFFSET 1.7295 0.0000 0.0000
                      }
                    }
                  }
                }
              }
            }
          }
        }
        JOINT Neck
        {
          OFFSET 18.2093 0.0000 0.0000
          CHANNELS 3 Yrotation Xrotation Zrotation
          JOINT Head
          {
            OFFSET 11.0335 0.0000 0.0000
            CHANNELS 3 Yrotation Xrotation Zrotation
            End Site
            {
              OFFSET 22.0670 0.0000 0.0000
            }
          }
        }
        JOINT RightShoulder
        {
          OFFSET 10.4351 7.0401 1.9147
          CHANNELS 3 Yrotation Xrotation Zrotation
          JOINT RightArm
          {
            OFFSET 13.4599 0.0001 0.0000
            CHANNELS 3 Yrotation Xrotation Zrotation
            JOINT RightForeArm
            {
              OFFSET 26.1001 0.0001 0.0000
              CHANNELS 3 Yrotation Xrotation Zrotation
              JOINT RightHand
              {
                OFFSET 28.9001 0.0001 0.0001
                CHANNELS 3 Yrotation Xrotation Zrotation
                JOINT RightInHandIndex
                {
                  OFFSET 2.6470 -0.1029 -1.6042
                  CHANNELS 3 Yrotation Xrotation Zrotation
                  JOINT RightHandIndex1
                  {
                    OFFSET 5.4271 0.0001 -0.9569
                    CHANNELS 3 Yrotation Xrotation Zrotation
                    JOINT RightHandIndex2
                    {
                      OFFSET 4.5805 0.0001 0.0000
                      CHANNELS 3 Yrotation Xrotation Zrotation
                      JOINT RightHandIndex3
                      {
                        OFFSET 2.8181 0.0001 0.0000
                        CHANNELS 3 Yrotation Xrotation Zrotation
                        End Site
                        {
                          OFFSET 1.4091 0.0000 0.0000
                        }
                      }
                    }
                  }
                }
                JOINT RightInHandMiddle
                {
                  OFFSET 2.7689 -0.1029 -0.5450
                  CHANNELS 3 Yrotation Xrotation Zrotation
                  JOINT RightHandMiddle1
                  {
                    OFFSET 5.3677 0.0001 0.0000
                    CHANNELS 3 Yrotation Xrotation Zrotation
                    JOINT RightHandMiddle2
                    {
                      OFFSET 4.7024 0.0001 0.0000
                      CHANNELS 3 Yrotation Xrotation Zrotation
                      JOINT RightHandMiddle3
                      {
                        OFFSET 3.1016 0.0001 0.0000
                        CHANNELS 3 Yrotation Xrotation Zrotation
                        End Site
                        {
                          OFFSET 1.5508 0.0001 0.0000
                        }
                      }
                    }
                  }
                }
                JOINT RightInHandPinky
                {
                  OFFSET 2.4892 -0.1029 1.4884
                  CHANNELS 3 Yrotation Xrotation Zrotation
                  JOINT RightHandPinky1
                  {
                    OFFSET 4.5290 0.0002 1.6484
                    CHANNELS 3 Yrotation Xrotation Zrotation
                    JOINT RightHandPinky2
                    {
                      OFFSET 3.5541 0.0000 0.0000
                      CHANNELS 3 Yrotation Xrotation Zrotation
                      JOINT RightHandPinky3
                      {
                        OFFSET 2.2340 0.0001 0.0000
                        CHANNELS 3 Yrotation Xrotation Zrotation
                        End Site
                        {
                          OFFSET 1.1170 0.0001 0.0000
                        }
                      }
                    }
                  }
                }
                JOINT RightInHandRing
                {
                  OFFSET 2.7444 -0.1029 0.5478
                  CHANNELS 3 Yrotation Xrotation Zrotation
                  JOINT RightHandRing1
                  {
                    OFFSET 5.0624 0.0002 0.8927
                    CHANNELS 3 Yrotation Xrotation Zrotation
                    JOINT RightHandRing2
                    {
                      OFFSET 4.3922 0.0001 0.0000
                      CHANNELS 3 Yrotation Xrotation Zrotation
                      JOINT RightHandRing3
                      {
                        OFFSET 2.8327 0.0001 0.0000
                        CHANNELS 3 Yrotation Xrotation Zrotation
                        End Site
                        {
                          OFFSET 1.4163 0.0000 0.0000
                        }
                      }
                    }
                  }
                }
                JOINT RightHandThumb1
                {
                  OFFSET 2.0791 -0.0945 -2.7863
                  CHANNELS 3 Yrotation Xrotation Zrotation
                  JOINT RightHandThumb2
                  {
                    OFFSET 3.9619 0.0001 0.0000
                    CHANNELS 3 Yrotation Xrotation Zrotation
                    JOINT RightHandThumb3
                    {
                      OFFSET 3.0072 0.0001 0.0000
                      CHANNELS 3 Yrotation Xrotation Zrotation
                      End Site
                      {
                        OFFSET 1.7295 0.0000 0.0000
                      }
                    }
                  }
                }
              }
            }
          }
        }
      }
    }
  }
  JOINT LeftUpLeg
  {
    OFFSET 8.1000 0.0000 0.0000
    CHANNELS 3 Yrotation Xrotation Zrotation
    JOINT LeftLeg
    {
      OFFSET 43.2000 0.0000 0.0000
      CHANNELS 3 Yrotation Xrotation Zrotation
      JOINT LeftFoot
      {
        OFFSET 43.3000 0.0000 0.0000
        CHANNELS 3 Yrotation Xrotation Zrotation
        JOINT LeftToeBase
        {
          OFFSET 14.5727 0.0000 0.0000
          CHANNELS 3 Yrotation Xrotation Zrotation
          End Site
          {
            OFFSET 7.2863 0.0000 0.0000
          }
        }
      }
    }
  }
  JOINT RightUpLeg
  {
    OFFSET -8.1000 0.0000 0.0000
    CHANNELS 3 Yrotation Xrotation Zrotation
    JOINT RightLeg
    {
      OFFSET 43.2000 0.0000 0.0000
      CHANNELS 3 Yrotation Xrotation Zrotation
      JOINT RightFoot
      {
        OFFSET 43.3000 -0.0626 0.0000
        CHANNELS 3 Yrotation Xrotation Zrotation
        JOINT RightToeBase
        {
          OFFSET 14.5727 0.0000 0.0000
          CHANNELS 3 Yrotation Xrotation Zrotation
          End Site
          {
            OFFSET 7.2864 0.0000 0.0000
          }
        }
      }
    }
  }
}
MOTION
Frames: 8
Frame Time: 0.02
-11.7012 120.9176 -139.4781 20.6619 4.0493 6.9995 0.0000 0.0000 90.0000 0.0000 0.0000 0.0000 0.0000 -30.6281 0.0000 0.0000 0.0000 -90.0000 -71.9284 34.1415 -92.3687 -71.6454 0.0000 0.0000 0.0000 0.0000 0.0000 0.0024 1.2310 0.2171 -8.2881 0.5561 -17.9917 0.0007 0.0002 -17.9988 -0.0008 0.0000 -18.0016 0.0000 -0.0001 0.0000 -5.1372 -1.6664 -17.9253 0.0000 0.0000 -18.0001 -0.0034 -0.0010 -18.0000 0.5905 -5.8773 -5.1793 11.2007 -13.4477 -16.1482 -0.0001 -0.0003 -18.0000 0.0000 0.0000 -17.9993 0.1281 -2.7201 -2.5536 1.3567 -8.1103 -16.9813 0.0001 0.0000 -17.9990 -0.0035 -0.0011 -18.0010 -51.5735 53.9499 -31.5005 6.3507 0.3529 -6.3509 6.3509 0.3526 -6.3510 0.0000 0.0000 0.0000 15.1710 16.9436 -94.5156 180.0000 0.0000 90.0000 68.2510 -29.5827 -71.4140 73.2878 -0.0001 0.0000 0.0000 0.0000 0.0000 -0.0024 -1.2310 0.2172 8.2881 -0.5563 -17.9918 -0.0003 -0.0001 -17.9993 178.0982 0.6179 17.9904 -0.0001 0.0000 0.0001 5.1372 1.6664 -17.9253 0.0000 0.0000 -18.0000 178.0978 0.6179 17.9897 -0.5906 5.8773 -5.1799 -11.2007 13.4479 -16.1470 -0.0002 -0.0001 -17.9992 178.0983 0.6180 17.9922 -0.1281 2.7201 -2.5536 -1.3567 8.1101 -16.9812 0.0000 0.0000 -17.9993 178.0978 0.6179 17.9904 51.5729 -53.9501 -31.5001 -6.3505 -0.3528 -6.3507 -6.3510 -0.3527 -6.3510 21.6722 -58.4523 -94.1612 103.7373 0.0000 0.0826 295.2681 90.0000 0.0000 1.0196 -0.4083 21.8211 -47.9825 -37.0679 -98.3564 76.8025 0.0001 0.0000 295.3508 90.0000 0.0000 0.0049 -0.0019 21.8046 
-11.5791 120.7278 -139.4208 21.5120 4.1361 7.5057 0.0000 0.0000 90.0000 0.0000 0.0000 0.0000 0.0000 -30.9991 0.0000 0.0000 0.0000 -90.0000 -72.0898 32.8173 -93.0240 -68.5872 0.0000 0.0000 0.0000 0.0000 0.0000 0.0024 1.2310 0.2171 -8.2881 0.5560 -17.9917 0.0007 0.0002 -17.9987 -0.0008 0.0000 -18.0016 0.0000 -0.0001 0.0000 -5.1372 -1.6664 -17.9253 -0.0001 0.0000 -18.0000 -0.0035 -0.0010 -18.0000 0.5905 -5.8773 -5.1793 11.2007 -13.4477 -16.1482 -0.0001 -0.0003 -18.0000 0.0000 0.0000 -17.9993 0.1281 -2.7201 -2.5536 1.3567 -8.1103 -16.9813 0.0001 0.0000 -17.9990 -0.0035 -0.0011 -18.0010 -51.5735 53.9499 -31.5005 6.3507 0.3529 -6.3509 6.3509 0.3526 -6.3510 0.0000 0.0000 0.0000 15.3846 16.8319 -94.9348 180.0000 0.0000 89.9999 68.3394 -29.2015 -71.9300 72.1027 -0.0001 0.0000 0.0000 0.0000 0.0000 -0.0024 -1.2310 0.2172 8.2881 -0.5563 -17.9918 -0.0003 -0.0001 -17.9993 178.0982 0.6179 17.9904 -0.0001 0.0000 0.0001 5.1372 1.6664 -17.9253 0.0000 0.0000 -18.0000 178.0978 0.6179 17.9897 -0.5906 5.8773 -5.1799 -11.2007 13.4479 -16.1470 -0.0002 -0.0001 -17.9992 178.0983 0.6180 17.9922 -0.1281 2.7201 -2.5536 -1.3567 8.1101 -16.9812 0.0000 0.0000 -17.9993 178.0978 0.6179 17.9904 51.5728 -53.9500 -31.5000 -6.3505 -0.3528 -6.3507 -6.3509 -0.3527 -6.3509 20.7762 -61.8587 -93.4254 106.3791 0.0001 0.0826 295.2681 90.0000 0.0000 1.2038 -0.4844 21.9159 -48.5595 -33.8932 -96.6492 71.5775 0.0000 0.0000 295.3508 90.0000 0.0000 0.0020 -0.0008 22.0130 
-11.4656 120.2035 -139.3668 22.3576 4.2350 8.0274 0.0000 0.0000 90.0000 0.0000 0.0000 0.0000 0.0000 -31.3484 0.0000 0.0000 0.0000 -90.0000 -72.1018 31.4429 -93.5281 -65.4647 0.0000 0.0000 0.0000 0.0000 0.0000 0.0024 1.2310 0.2171 -8.2881 0.5560 -17.9917 0.0007 0.0002 -17.9988 -0.0008 0.0000 -18.0016 0.0000 -0.0001 0.0000 -5.1372 -1.6664 -17.9253 -0.0001 0.0000 -18.0001 -0.0035 -0.0010 -18.0000 0.5905 -5.8773 -5.1793 11.2007 -13.4477 -16.1482 -0.0001 -0.0003 -18.0000 0.0000 0.0000 -17.9993 0.1281 -2.7201 -2.5537 1.3567 -8.1103 -16.9813 0.0001 0.0000 -17.9990 -0.0035 -0.0011 -18.0010 -51.5734 53.9498 -31.5004 6.3507 0.3529 -6.3509 6.3509 0.3527 -6.3510 0.0000 0.0000 0.0000 15.6228 16.7072 -95.3581 180.0000 0.0000 89.9999 68.3667 -28.7229 -72.3815 70.8050 -0.0001 0.0000 0.0000 0.0000 0.0000 -0.0024 -1.2310 0.2172 8.2881 -0.5563 -17.9917 -0.0003 -0.0001 -17.9993 178.0982 0.6179 17.9904 -0.0001 0.0000 0.0001 5.1372 1.6664 -17.9253 0.0000 0.0000 -18.0000 178.0978 0.6179 17.9897 -0.5906 5.8773 -5.1799 -11.2007 13.4479 -16.1470 -0.0002 -0.0001 -17.9992 178.0983 0.6180 17.9922 -0.1281 2.7201 -2.5536 -1.3567 8.1101 -16.9812 0.0000 0.0000 -17.9993 178.0978 0.6179 17.9904 51.5729 -53.9501 -31.5000 -6.3505 -0.3528 -6.3507 -6.3509 -0.3527 -6.3510 19.6210 -65.2148 -92.3955 108.8277 0.0001 0.0826 295.2680 90.0000 0.0000 1.3984 -0.5658 22.0244 -48.7084 -31.0039 -95.2586 66.6705 0.0000 -0.0001 295.3307 90.0000 0.0000 0.0005 -0.0002 22.2218 
-11.3503 119.3837 -139.3150 23.1039 4.5594 8.6050 0.0000 0.0000 90.0000 0.0000 0.0000 0.0000 0.0000 -31.4740 0.0000 0.0000 0.0000 -90.0000 -71.6832 29.5145 -93.2021 -61.5049 0.0000 0.0000 0.0000 0.0000 0.0000 0.0024 1.2310 0.2171 -8.2881 0.5560 -17.9917 0.0007 0.0003 -17.9988 -0.0008 0.0000 -18.0016 0.0000 -0.0001 0.0000 -5.1372 -1.6664 -17.9253 -0.0001 0.0000 -18.0001 -0.0035 -0.0010 -18.0000 0.5905 -5.8773 -5.1793 11.2007 -13.4477 -16.1482 -0.0001 -0.0003 -18.0000 0.0000 0.0000 -17.9993 0.1281 -2.7201 -2.5536 1.3567 -8.1103 -16.9813 0.0001 0.0000 -17.9990 -0.0035 -0.0011 -18.0010 -51.5734 53.9498 -31.5004 6.3507 0.3529 -6.3509 6.3509 0.3527 -6.3510 0.0000 0.0000 0.0000 16.1054 16.4724 -95.7307 180.0000 0.0000 89.9999 68.0207 -27.3523 -72.4609 68.4772 -0.0001 0.0000 0.0000 0.0000 0.0000 -0.0024 -1.2310 0.2172 8.2881 -0.5562 -17.9918 -0.0003 -0.0001 -17.9993 178.0982 0.6179 17.9904 -0.0001 0.0000 0.0001 5.1372 1.6664 -17.9253 0.0000 0.0000 -18.0000 178.0978 0.6179 17.9897 -0.5906 5.8773 -5.1799 -11.2007 13.4479 -16.1470 -0.0002 -0.0001 -17.9992 178.0983 0.6180 17.9922 -0.1281 2.7201 -2.5536 -1.3567 8.1101 -16.9812 0.0000 0.0000 -17.9993 178.0978 0.6179 17.9904 51.5729 -53.9501 -31.5001 -6.3505 -0.3528 -6.3507 -6.3510 -0.3527 -6.3510 17.3746 -68.6623 -90.1014 110.2719 0.0001 0.0826 295.2681 90.0000 0.0000 1.6694 -0.6829 22.2417 -48.4278 -29.3640 -94.4689 62.9656 0.0001 0.0000 295.3508 90.0000 0.0000 0.0002 -0.0001 22.4110 
-11.2015 118.5087 -139.2672 23.8749 4.8747 9.2043 0.0000 0.0000 90.0000 0.0000 0.0000 0.0000 0.0000 -31.6067 0.0000 0.0000 0.0000 -90.0000 -71.2055 27.5914 -92.8668 -57.5999 0.0000 0.0000 0.0000 0.0000 0.0000 0.0024 1.2310 0.2171 -8.2881 0.5561 -17.9917 0.0007 0.0002 -17.9988 -0.0007 0.0000 -18.0016 0.0000 -0.0001 0.0000 -5.1372 -1.6664 -17.9253 0.0000 0.0000 -18.0000 -0.0034 -0.0010 -18.0000 0.5905 -5.8773 -5.1793 11.2007 -13.4477 -16.1482 -0.0001 -0.0003 -18.0000 0.0000 0.0000 -17.9992 0.1281 -2.7201 -2.5537 1.3567 -8.1103 -16.9813 0.0001 0.0000 -17.9990 -0.0035 -0.0011 -18.0010 -51.5735 53.9499 -31.5005 6.3507 0.3529 -6.3509 6.3509 0.3526 -6.3510 0.0000 0.0000 0.0000 16.5927 16.2302 -96.1222 180.0000 0.0000 89.9999 67.6314 -25.9858 -72.4964 66.1616 -0.0001 0.0000 0.0000 0.0000 0.0000 -0.0024 -1.2310 0.2172 8.2881 -0.5562 -17.9918 -0.0003 -0.0001 -17.9993 178.0982 0.6179 17.9904 -0.0001 0.0000 0.0001 5.1372 1.6664 -17.9253 0.0000 0.0000 -18.0000 178.0978 0.6179 17.9897 -0.5906 5.8773 -5.1799 -11.2007 13.4479 -16.1470 -0.0002 -0.0001 -17.9992 178.0983 0.6180 17.9922 -0.1281 2.7201 -2.5536 -1.3567 8.1100 -16.9812 0.0000 0.0000 -17.9993 178.0978 0.6179 17.9904 51.5729 -53.9501 -31.5001 -6.3505 -0.3528 -6.3507 -6.3509 -0.3527 -6.3509 14.2995 -72.0450 -86.9175 111.5695 0.0000 0.0826 295.2681 90.0000 0.0000 1.9415 -0.8029 22.4599 -47.9487 -27.8077 -93.7647 59.3766 0.0000 0.0000 295.3508 90.0000 0.0000 0.0000 0.0000 22.5951 
-11.0103 117.3904 -139.2237 24.6697 5.1798 9.8255 0.0000 0.0000 90.0000 0.0000 0.0000 0.0000 0.0000 -31.7455 0.0000 0.0000 0.0000 -90.0000 -70.6569 25.6755 -92.5246 -53.7613 0.0000 0.0000 0.0000 0.0000 0.0000 0.0024 1.2310 0.2171 -8.2881 0.5560 -17.9917 0.0007 0.0003 -17.9988 -0.0007 0.0000 -18.0016 0.0000 -0.0001 0.0000 -5.1372 -1.6664 -17.9253 -0.0001 0.0000 -18.0001 -0.0035 -0.0010 -18.0000 0.5905 -5.8773 -5.1793 11.2007 -13.4477 -16.1482 -0.0001 -0.0003 -18.0000 0.0000 0.0000 -17.9993 0.1281 -2.7201 -2.5536 1.3567 -8.1103 -16.9813 0.0001 0.0000 -17.9990 -0.0035 -0.0011 -18.0010 -51.5735 53.9499 -31.5005 6.3507 0.3529 -6.3509 6.3509 0.3527 -6.3510 0.0000 0.0000 0.0000 17.0846 15.9808 -96.5332 180.0000 0.0000 89.9999 67.2008 -24.6257 -72.4905 63.8609 -0.0001 0.0000 0.0000 0.0000 0.0000 -0.0024 -1.2310 0.2172 8.2881 -0.5562 -17.9918 -0.0003 -0.0001 -17.9993 178.0982 0.6179 17.9904 -0.0001 0.0000 0.0001 5.1372 1.6664 -17.9253 0.0000 0.0000 -18.0000 178.0978 0.6179 17.9897 -0.5906 5.8773 -5.1799 -11.2007 13.4479 -16.1469 -0.0002 -0.0001 -17.9992 178.0983 0.6180 17.9922 -0.1281 2.7201 -2.5536 -1.3567 8.1101 -16.9812 0.0000 0.0000 -17.9993 178.0978 0.6179 17.9904 51.5728 -53.9500 -31.5000 -6.3505 -0.3527 -6.3507 -6.3510 -0.3527 -6.3510 9.8974 -75.3100 -82.3485 112.6969 0.0001 0.0826 295.2681 90.0000 0.0000 2.2102 -0.9240 22.6767 -47.2641 -26.3639 -93.1434 55.9149 0.0000 0.0000 295.3508 90.0000 0.0000 0.0001 0.0000 22.7743 
-10.7782 116.0394 -139.1828 25.3678 5.6371 10.4811 0.0000 0.0000 90.0000 0.0000 0.0000 0.0000 0.0000 -31.6804 0.0000 0.0000 0.0000 -90.0000 -70.1496 23.4694 -91.6344 -49.8460 0.0000 0.0000 0.0000 0.0000 0.0000 0.0024 1.2310 0.2171 -8.2881 0.5561 -17.9917 0.0007 0.0002 -17.9988 -0.0008 0.0000 -18.0016 0.0000 0.0000 0.0000 -5.1372 -1.6664 -17.9253 0.0000 0.0000 -18.0001 -0.0035 -0.0010 -18.0000 0.5905 -5.8773 -5.1793 11.2007 -13.4477 -16.1482 -0.0001 -0.0003 -18.0000 0.0000 0.0000 -17.9993 0.1281 -2.7201 -2.5536 1.3567 -8.1103 -16.9813 0.0001 0.0000 -17.9991 -0.0035 -0.0011 -18.0010 -51.5735 53.9499 -31.5005 6.3507 0.3529 -6.3509 6.3509 0.3527 -6.3510 0.0000 0.0000 0.0000 17.7464 15.6335 -96.9189 180.0000 0.0000 89.9999 66.6135 -22.6767 -72.1967 60.8723 -0.0001 0.0000 0.0000 0.0000 0.0000 -0.0024 -1.2310 0.2172 8.2881 -0.5563 -17.9918 -0.0003 -0.0001 -17.9993 178.0982 0.6179 17.9904 -0.0001 0.0000 0.0001 5.1372 1.6664 -17.9253 0.0000 0.0000 -18.0000 178.0978 0.6179 17.9897 -0.5906 5.8773 -5.1799 -11.2007 13.4479 -16.1470 -0.0002 -0.0001 -17.9992 178.0983 0.6180 17.9922 -0.1281 2.7201 -2.5536 -1.3567 8.1101 -16.9812 0.0000 0.0000 -17.9993 178.0978 0.6179 17.9904 51.5729 -53.9500 -31.5001 -6.3505 -0.3528 -6.3507 -6.3509 -0.3527 -6.3510 1.9399 -78.2812 -74.0955 112.8811 0.0001 0.0826 295.2680 90.0000 0.0000 2.5251 -1.0695 22.9414 -46.6165 -25.9480 -92.7877 53.8954 0.0000 0.0000 295.3508 90.0000 0.0000 0.0585 -0.0247 22.8817 
-10.5212 114.8921 -139.1454 26.0579 6.1390 11.1667 0.0000 0.0000 90.0000 0.0000 0.0000 0.0000 0.0000 -31.5507 0.0000 0.0000 0.0000 -90.0000 -69.6848 21.1615 -90.6127 -45.9473 0.0000 0.0000 0.0000 0.0000 0.0000 0.0024 1.2310 0.2171 -8.2881 0.5561 -17.9917 0.0007 0.0002 -17.9988 -0.0008 0.0000 -18.0016 0.0000 0.0000 0.0000 -5.1372 -1.6664 -17.9253 -0.0001 0.0000 -18.0001 -0.0035 -0.0010 -18.0000 0.5905 -5.8773 -5.1793 11.2007 -13.4477 -16.1482 -0.0001 -0.0003 -18.0000 0.0000 0.0000 -17.9992 0.1281 -2.7201 -2.5536 1.3567 -8.1103 -16.9813 0.0001 0.0000 -17.9990 -0.0035 -0.0011 -18.0010 -51.5735 53.9499 -31.5005 6.3507 0.3529 -6.3509 6.3509 0.3527 -6.3510 0.0000 0.0000 0.0000 18.4680 15.2456 -97.3179 180.0000 0.0000 89.9999 65.9539 -20.5478 -71.7934 57.6853 0.0000 0.0000 0.0000 0.0000 0.0000 -0.0024 -1.2310 0.2172 8.2881 -0.5563 -17.9917 -0.0003 -0.0001 -17.9993 178.0982 0.6179 17.9904 -0.0001 0.0000 0.0001 5.1372 1.6664 -17.9253 0.0000 0.0000 -18.0000 178.0978 0.6179 17.9897 -0.5906 5.8773 -5.1799 -11.2007 13.4479 -16.1470 -0.0002 -0.0001 -17.9992 178.0983 0.6180 17.9922 -0.1281 2.7201 -2.5536 -1.3567 8.1100 -16.9812 0.0000 0.0000 -17.9993 178.0978 0.6179 17.9904 51.5728 -53.9500 -31.5000 -6.3505 -0.3528 -6.3507 -6.3510 -0.3527 -6.3510 -11.1823 -80.7922 -60.5591 112.5414 0.0001 0.0826 295.2681 90.0000 0.0000 2.8442 -1.2207 23.2102 -45.9704 -25.8722 -92.5340 52.3452 0.0000 -0.0001 295.3508 90.0000 0.0000 0.1391 -0.0589 22.9644 
